<svg width="22" height="19" viewBox="0 0 22 19" fill="none" xmlns="http://www.w3.org/2000/svg">
<path d="M15.8156 0C17.5217 0 18.9548 0.54932 20.115 1.64796C21.2751 2.7466 21.8552 4.08759 21.8552 5.67092C21.8552 6.44643 21.6846 7.23002 21.3434 8.02169C21.0021 8.81335 20.6268 9.51616 20.2173 10.1301C19.8079 10.744 19.1169 11.5357 18.1444 12.5051C17.1719 13.4745 16.353 14.2581 15.6876 14.8559C15.0222 15.4537 13.9559 16.3665 12.4887 17.5944L10.902 18.9515L9.31533 17.6429C7.8822 16.3827 6.82442 15.4537 6.14197 14.8559C5.45953 14.2581 4.63207 13.4745 3.65959 12.5051C2.68711 11.5357 1.99614 10.744 1.58668 10.1301C1.17721 9.51616 0.810399 8.81335 0.48624 8.02169C0.16208 7.23002 0 6.44643 0 5.67092C0 4.08759 0.580075 2.7466 1.74023 1.64796C2.90038 0.54932 4.31644 0 5.98843 0C7.96751 0 9.60537 0.727041 10.902 2.18112C12.1986 0.727041 13.8365 0 15.8156 0ZM11.0044 16.0918C12.6764 14.6701 13.8962 13.6118 14.664 12.9171C15.4317 12.2224 16.2762 11.3903 17.1975 10.4209C18.1188 9.45153 18.7586 8.60332 19.1169 7.87628C19.4752 7.14924 19.6543 6.41412 19.6543 5.67092C19.6543 4.63691 19.2875 3.78061 18.5539 3.10204C17.8203 2.42347 16.9075 2.08418 15.8156 2.08418C14.9967 2.08418 14.2204 2.31037 13.4868 2.76276C12.7531 3.21514 12.2328 3.79677 11.9257 4.50765H9.87834C9.60537 3.79677 9.10207 3.21514 8.36844 2.76276C7.63482 2.31037 6.84148 2.08418 5.98843 2.08418C4.89652 2.08418 3.99228 2.42347 3.27572 3.10204C2.55916 3.78061 2.20087 4.63691 2.20087 5.67092C2.20087 6.41412 2.37148 7.14924 2.71271 7.87628C3.05393 8.60332 3.69372 9.45153 4.63207 10.4209C5.57043 11.3903 6.42348 12.2224 7.19123 12.9171C7.95898 13.6118 9.16178 14.6701 10.7996 16.0918L10.902 16.1888L11.0044 16.0918Z" fill="#9B9B9B"/>
</svg>
